<svg viewBox="0 0 512 512" xmlns="http://www.w3.org/2000/svg"><path d="m170.195312 235.96875c0-100.898438 66.132813-186.335938 157.414063-215.367188-22.660156-6.886718-46.699219-10.601562-71.609375-10.601562-135.863281 0-246 110.136719-246 246s110.136719 246 246 246c49.722656 0 95.988281-14.765625 134.683594-40.132812-122.265625-2.910157-220.488282-102.933594-220.488282-225.898438zm0 0" fill="#ffb954"/><path d="m457.898438 125.601562c-12.621094 0-24 5.527344-32.039063 14.382813-8.039063-8.855469-19.421875-14.382813-32.039063-14.382813-24.359374 0-44.105468 20.582032-44.105468 45.972657 0 42.800781 76.144531 84.554687 76.144531 84.554687s76.140625-41.753906 76.140625-84.554687c0-25.390625-19.746094-45.972657-44.101562-45.972657zm0 0" fill="#ff5d5d"/><path d="m367.773438 298.074219c-7.113282 0-13.527344 3.117187-18.058594 8.105469-4.53125-4.988282-10.941406-8.105469-18.054688-8.105469-13.726562 0-24.855468 11.601562-24.855468 25.910156 0 24.121094 42.910156 47.652344 42.910156 47.652344s42.914062-23.527344 42.914062-47.652344c0-14.308594-11.128906-25.910156-24.855468-25.910156zm0 0" fill="#ff5d5d"/><path d="m124.449219 58.101562c1.832031 0 3.691406-.507812 5.355469-1.566406l.519531-.328125c4.679687-2.9375 6.089843-9.105469 3.15625-13.785156-2.9375-4.679687-9.109375-6.089844-13.785157-3.15625l-.625.394531c-4.660156 2.964844-6.035156 9.144532-3.070312 13.804688 1.90625 2.996094 5.140625 4.636718 8.449219 4.636718zm0 0"/><path d="m390.921875 451.871094c-116.195313-2.765625-210.726563-99.621094-210.726563-215.902344 0-94.5 60.457032-177.21875 150.445313-205.839844 4.171875-1.324218 6.996094-5.214844 6.96875-9.59375s-2.902344-8.230468-7.09375-9.503906c-24.09375-7.320312-49.164063-11.03125-74.515625-11.03125-34.019531 0-67.0625 6.566406-98.210938 19.519531-5.101562 2.121094-7.515624 7.972657-5.394531 13.074219 2.117188 5.097656 7.96875 7.515625 13.070313 5.394531 28.707031-11.9375 59.167968-17.988281 90.535156-17.988281 12.847656 0 25.617188 1.03125 38.199219 3.085938-34.464844 16.464843-64.347657 41.054687-87.554688 72.285156-30.386719 40.890625-46.449219 89.507812-46.449219 140.597656 0 62.035156 23.878907 120.617188 67.242188 164.960938 35.617188 36.421874 81.109375 59.929687 130.550781 67.941406-31.664062 15.199218-66.398437 23.128906-101.988281 23.128906-130.132812 0-236-105.867188-236-236 0-66.492188 28.277344-130.253906 77.585938-174.933594 4.09375-3.707031 4.402343-10.03125.695312-14.125-3.710938-4.09375-10.035156-4.402344-14.125-.695312-26.230469 23.769531-46.90625 52.105468-61.457031 84.21875-15.0625 33.246094-22.699219 68.753906-22.699219 105.535156 0 68.378906 26.628906 132.667969 74.980469 181.019531 48.351562 48.351563 112.640625 74.980469 181.019531 74.980469 50.015625 0 98.484375-14.441406 140.164062-41.769531 3.664063-2.398438 5.335938-6.902344 4.136719-11.109375-1.203125-4.207032-5.003906-7.144532-9.378906-7.25zm0 0"/><path d="m457.894531 115.601562c-11.558593 0-22.8125 3.886719-32.039062 10.882813-9.222657-6.996094-20.476563-10.882813-32.035157-10.882813-29.835937 0-54.105468 25.109376-54.105468 55.972657 0 20.871093 14.023437 43.082031 41.6875 66.023437 19.546875 16.214844 38.835937 26.851563 39.648437 27.296875 1.496094.824219 3.152344 1.234375 4.808594 1.234375s3.308594-.410156 4.804687-1.234375c.8125-.445312 20.101563-11.082031 39.648438-27.296875 27.664062-22.941406 41.6875-45.15625 41.6875-66.023437 0-30.863281-24.269531-55.972657-54.105469-55.972657zm-32.042969 129.003907c-22.152343-13.132813-66.136718-44.996094-66.136718-73.03125 0-19.835938 15.300781-35.972657 34.105468-35.972657 9.382813 0 18.132813 3.941407 24.632813 11.101563 1.894531 2.089844 4.582031 3.28125 7.402344 3.28125 2.820312 0 5.511719-1.191406 7.40625-3.28125 6.5-7.15625 15.246093-11.101563 24.632812-11.101563 18.804688 0 34.105469 16.136719 34.105469 35.972657 0 27.976562-44 59.878906-66.148438 73.03125zm0 0"/><path d="m367.769531 288.074219c-6.398437 0-12.652343 1.839843-18.054687 5.207031-5.402344-3.367188-11.65625-5.207031-18.058594-5.207031-19.21875 0-34.855469 16.109375-34.855469 35.910156 0 29.199219 43.183594 53.722656 48.105469 56.421875 1.496094.820312 3.152344 1.230469 4.808594 1.230469s3.308594-.410157 4.808594-1.230469c4.921874-2.699219 48.105468-27.222656 48.105468-56.421875 0-19.796875-15.636718-35.910156-34.859375-35.910156zm-18.054687 71.957031c-13.109375-8.191406-32.910156-23.960938-32.910156-36.046875 0-8.769531 6.664062-15.910156 14.855468-15.910156 4.042969 0 7.824219 1.714843 10.648438 4.828125 1.894531 2.085937 4.585937 3.277344 7.40625 3.277344 2.816406 0 5.507812-1.1875 7.402344-3.277344 2.824218-3.113282 6.609374-4.828125 10.652343-4.828125 8.191407 0 14.855469 7.140625 14.855469 15.910156.003906 12.085937-19.804688 27.855469-32.910156 36.046875zm0 0"/><path d="m79.996094 377.871094c1.941406 2.800781 5.058594 4.300781 8.226562 4.300781 1.96875 0 3.953125-.578125 5.691406-1.785156 4.535157-3.148438 5.664063-9.378907 2.515626-13.917969-15.597657-22.480469-26.066407-47.472656-31.121094-74.277344-1.023438-5.425781-6.242188-8.992187-11.679688-7.972656-5.429687 1.023438-9 6.253906-7.976562 11.679688 5.578125 29.582031 17.132812 57.164062 34.34375 81.972656zm0 0"/><path d="m61.941406 256.335938v-.335938c0-5.523438-4.480468-10-10-10-5.523437 0-10 4.476562-10 10v.335938c0 5.519531 4.476563 10 10 10 5.519532 0 10-4.480469 10-10zm0 0"/></svg>